<svg width="100" height="100" viewBox="0 0 100 100" fill="#237893" xmlns="http://www.w3.org/2000/svg">
  <path d="M93.343 25.0053C87.972 15.4152 71.509 15.9221 60.853 18.7652V18.7562C51.209 21.1355 41.42 25.654 32.969 31.1583C35.94 15.8311 48.606 -7.04881 61.377 15.5632C63.483 15.0823 65.556 14.7034 67.577 14.4315C57.213 -6.31204 40.046 -3.93977 31.1 17.2697C27.456 25.741 25.651 35.2291 25.138 44.7381C38.657 32.7778 56.338 23.5027 74.611 22.9339C79.935 23.0149 85.578 23.8856 88.149 28.0043C90.437 32.303 88.349 37.8893 85.549 42.6118C87.021 44.2173 88.375 45.8341 89.611 47.4623C95.1 39.0819 96.772 30.9424 93.343 25.0053Z"/>
  <path d="M50 99.999C61 100.136 68.779 85.6244 71.636 74.9767H71.645C74.399 65.4357 75.371 54.7 74.822 44.6321C86.622 54.86 100.122 77.256 74.154 77.0221C73.519 79.0865 72.812 81.0709 72.041 82.9523C95.187 84.3398 101.704 68.2858 87.792 49.9445C82.27 42.5578 74.948 36.2567 66.963 31.0634C70.578 48.7449 69.787 68.6917 61.154 84.8017C58.425 89.3723 54.854 93.8249 49.999 93.9989C45.13 93.8329 41.333 89.2333 38.637 84.4528C36.511 84.926 34.4337 85.2925 32.405 85.5525C36.928 94.4877 43.146 100.004 50 99.999Z"/>
  <path d="M6.688 24.9522C1.066 34.3973 9.737 48.396 17.529 56.1995L17.522 56.2055C24.405 63.3653 33.216 69.5784 42.209 74.144C27.446 79.2424 1.292 79.7123 14.49 57.3492C13.021 55.7657 11.656 54.1612 10.412 52.5507C-2.375 71.8877 8.265 85.5634 31.112 82.7043C40.273 81.6227 49.394 78.4417 57.888 74.13C40.767 68.4078 23.888 57.7351 14.261 42.2029C11.669 37.5533 9.602 32.233 11.884 27.9473C14.465 23.8166 20.348 22.8329 25.838 22.8929C26.492 20.8155 27.2153 18.8348 28.008 16.9507C18.005 16.3949 10.116 19.0141 6.688 24.9522Z"/>
  <path d="M50 52.9836C51.6569 52.9836 53 51.6408 53 49.9845C53 48.3281 51.6569 46.9854 50 46.9854C48.3431 46.9854 47 48.3281 47 49.9845C47 51.6408 48.3431 52.9836 50 52.9836Z"/>
</svg>

